<!DOCTYPE svg PUBLIC "-//W3C//DTD SVG 1.1//EN" "http://www.w3.org/Graphics/SVG/1.1/DTD/svg11.dtd">
<!-- Uploaded to: SVG Repo, www.svgrepo.com, Transformed by: SVG Repo Mixer Tools -->
<svg width="800px" height="800px" viewBox="-2.4 -2.4 28.80 28.80" fill="none" xmlns="http://www.w3.org/2000/svg">
<g id="SVGRepo_bgCarrier" stroke-width="0">
<rect x="-2.4" y="-2.4" width="28.80" height="28.80" rx="14.4" fill="#ffffff" strokewidth="0"/>
</g>
<g id="SVGRepo_tracerCarrier" stroke-linecap="round" stroke-linejoin="round" stroke="#ff0000" stroke-width="0.144"/>
<g id="SVGRepo_iconCarrier"> <path d="M19 12C19 15.866 15.866 19 12 19C8.13401 19 5 15.866 5 12C5 8.13401 8.13401 5 12 5C15.866 5 19 8.13401 19 12Z" stroke="#323232" stroke-width="2.4"/> <path d="M19 12H21" stroke="#323232" stroke-width="2.4" stroke-linecap="round" stroke-linejoin="round"/> <path d="M3 12H5" stroke="#323232" stroke-width="2.4" stroke-linecap="round" stroke-linejoin="round"/> <path d="M12 19L12 21" stroke="#323232" stroke-width="2.4" stroke-linecap="round" stroke-linejoin="round"/> <path d="M12 3L12 5" stroke="#323232" stroke-width="2.4" stroke-linecap="round" stroke-linejoin="round"/> <path d="M15 12C15 13.6569 13.6569 15 12 15C10.3431 15 9 13.6569 9 12C9 10.3431 10.3431 9 12 9C13.6569 9 15 10.3431 15 12Z" stroke="#323232" stroke-width="2.4"/> </g>
</svg>