<!DOCTYPE svg PUBLIC "-//W3C//DTD SVG 1.1//EN" "http://www.w3.org/Graphics/SVG/1.1/DTD/svg11.dtd">
<!-- Uploaded to: SVG Repo, www.svgrepo.com, Transformed by: SVG Repo Mixer Tools -->
<svg fill="#000000" width="800px" height="800px" viewBox="-2.4 -2.4 28.80 28.80" xmlns="http://www.w3.org/2000/svg" stroke="#000000" stroke-width="0.00024000000000000003">
<g id="SVGRepo_bgCarrier" stroke-width="0" transform="translate(0,0), scale(1)"/>
<g id="SVGRepo_tracerCarrier" stroke-linecap="round" stroke-linejoin="round" stroke="#fcfcfc" stroke-width="4.8">
<path d="M20.992,9.98A8.991,8.991,0,0,0,3.01,9.932a13.95,13.95,0,0,0,8.574,12.979A1,1,0,0,0,12,23a1.012,1.012,0,0,0,.419-.09A13.948,13.948,0,0,0,20.992,9.98ZM12,20.9A11.713,11.713,0,0,1,5.008,10a6.992,6.992,0,1,1,13.984,0c0,.021,0,.045,0,.065A11.7,11.7,0,0,1,12,20.9ZM12,6a4,4,0,1,0,4,4A4,4,0,0,0,12,6Zm0,6a2,2,0,1,1,2-2A2,2,0,0,1,12,12Z"/>
</g>
<g id="SVGRepo_iconCarrier">
<path d="M20.992,9.98A8.991,8.991,0,0,0,3.01,9.932a13.95,13.95,0,0,0,8.574,12.979A1,1,0,0,0,12,23a1.012,1.012,0,0,0,.419-.09A13.948,13.948,0,0,0,20.992,9.98ZM12,20.9A11.713,11.713,0,0,1,5.008,10a6.992,6.992,0,1,1,13.984,0c0,.021,0,.045,0,.065A11.7,11.7,0,0,1,12,20.9ZM12,6a4,4,0,1,0,4,4A4,4,0,0,0,12,6Zm0,6a2,2,0,1,1,2-2A2,2,0,0,1,12,12Z"/>
</g>
</svg>